# xmcd CD database file
#
# Track frame offsets:
#	150
#	31176
#	63369
#	87657
#	121860
#	153438
#	168848
#	196726
#	213692
#	236535
#	255995
#
# Disc length: 3622 seconds
#
# Revision: 1
# Processed by: cddbd v1.5.1PL0 Copyright (c) Steve Scherf et al.
# Submitted via: CDex 1.51
#
DISCID=890e240b
DTITLE=溝口肇 - Far East　〜世界の車窓から〜
DYEAR=1998
DGENRE=New Age
TTITLE0=世界の車窓から
TTITLE1=Delight
TTITLE2=Living Stone
TTITLE3=Blue Cactus
TTITLE4=Still Life
TTITLE5=Quiet Days
TTITLE6=66 miles
TTITLE7=Amazing Grace
TTITLE8=緑の影 II
TTITLE9='O Marenariello
TTITLE10=世界の車窓から 〜Orchestra ver.
EXTD=YEAR: 1998
EXTT0=
EXTT1=
EXTT2=
EXTT3=
EXTT4=
EXTT5=
EXTT6=
EXTT7=
EXTT8=
EXTT9=
EXTT10=
PLAYORDER=
